<mxfile host="app.diagrams.net" modified="2024-04-26T20:11:08.286Z" agent="Mozilla/5.0 (Windows NT 10.0; Win64; x64) AppleWebKit/537.36 (KHTML, like Gecko) Chrome/124.0.0.0 Safari/537.36" etag="QDLCRHuAsHR1E0i1GyVP" version="24.3.1" type="device">
  <diagram name="Page-1" id="ouWPbButMf8su1OEYlYQ">
    <mxGraphModel dx="2309" dy="1749" grid="0" gridSize="10" guides="1" tooltips="1" connect="1" arrows="1" fold="1" page="0" pageScale="1" pageWidth="850" pageHeight="1100" math="0" shadow="0">
      <root>
        <mxCell id="0" />
        <mxCell id="1" parent="0" />
        <mxCell id="tOOQpvvxY-JSeD_8fMoC-1" value="item code" style="ellipse;whiteSpace=wrap;html=1;align=center;" parent="1" vertex="1">
          <mxGeometry x="850" y="32" width="100" height="40" as="geometry" />
        </mxCell>
        <mxCell id="tOOQpvvxY-JSeD_8fMoC-2" value="stk_desc" style="ellipse;whiteSpace=wrap;html=1;align=center;" parent="1" vertex="1">
          <mxGeometry x="888" y="-110" width="100" height="40" as="geometry" />
        </mxCell>
        <mxCell id="tOOQpvvxY-JSeD_8fMoC-3" value="stk_type" style="ellipse;whiteSpace=wrap;html=1;align=center;" parent="1" vertex="1">
          <mxGeometry x="898" y="-27" width="100" height="40" as="geometry" />
        </mxCell>
        <mxCell id="tOOQpvvxY-JSeD_8fMoC-4" value="" style="endArrow=none;html=1;rounded=0;exitX=1;exitY=0.25;exitDx=0;exitDy=0;entryX=0;entryY=0.5;entryDx=0;entryDy=0;" parent="1" source="tOOQpvvxY-JSeD_8fMoC-8" target="tOOQpvvxY-JSeD_8fMoC-2" edge="1">
          <mxGeometry width="50" height="50" relative="1" as="geometry">
            <mxPoint x="440" y="-240" as="sourcePoint" />
            <mxPoint x="490" y="-290" as="targetPoint" />
            <Array as="points" />
          </mxGeometry>
        </mxCell>
        <mxCell id="tOOQpvvxY-JSeD_8fMoC-5" value="" style="endArrow=none;html=1;rounded=0;entryX=0.912;entryY=1.07;entryDx=0;entryDy=0;entryPerimeter=0;" parent="1" source="tOOQpvvxY-JSeD_8fMoC-3" target="tOOQpvvxY-JSeD_8fMoC-8" edge="1">
          <mxGeometry width="50" height="50" relative="1" as="geometry">
            <mxPoint x="375" y="-140" as="sourcePoint" />
            <mxPoint x="425" y="-190" as="targetPoint" />
          </mxGeometry>
        </mxCell>
        <mxCell id="tOOQpvvxY-JSeD_8fMoC-7" value="" style="endArrow=none;html=1;rounded=0;exitX=0;exitY=0;exitDx=0;exitDy=0;" parent="1" source="tOOQpvvxY-JSeD_8fMoC-1" target="tOOQpvvxY-JSeD_8fMoC-8" edge="1">
          <mxGeometry width="50" height="50" relative="1" as="geometry">
            <mxPoint x="330" y="-170" as="sourcePoint" />
            <mxPoint x="380" y="-220" as="targetPoint" />
          </mxGeometry>
        </mxCell>
        <mxCell id="tOOQpvvxY-JSeD_8fMoC-8" value="stock" style="rounded=1;arcSize=0;whiteSpace=wrap;html=1;align=center;" parent="1" vertex="1">
          <mxGeometry x="717" y="-78" width="100" height="40" as="geometry" />
        </mxCell>
        <mxCell id="tOOQpvvxY-JSeD_8fMoC-30" value="" style="edgeStyle=none;curved=1;rounded=0;orthogonalLoop=1;jettySize=auto;html=1;fontSize=12;startSize=8;endSize=8;" parent="1" source="tOOQpvvxY-JSeD_8fMoC-9" target="tOOQpvvxY-JSeD_8fMoC-29" edge="1">
          <mxGeometry relative="1" as="geometry">
            <Array as="points">
              <mxPoint x="747" y="-242" />
            </Array>
          </mxGeometry>
        </mxCell>
        <mxCell id="tOOQpvvxY-JSeD_8fMoC-9" value="products" style="rounded=1;arcSize=0;whiteSpace=wrap;html=1;align=center;" parent="1" vertex="1">
          <mxGeometry x="710" y="-410" width="100" height="40" as="geometry" />
        </mxCell>
        <mxCell id="tOOQpvvxY-JSeD_8fMoC-10" value="product_unit" style="ellipse;whiteSpace=wrap;html=1;align=center;" parent="1" vertex="1">
          <mxGeometry x="825" y="-330" width="100" height="40" as="geometry" />
        </mxCell>
        <mxCell id="tOOQpvvxY-JSeD_8fMoC-11" value="product category" style="ellipse;whiteSpace=wrap;html=1;align=center;" parent="1" vertex="1">
          <mxGeometry x="870" y="-410" width="100" height="40" as="geometry" />
        </mxCell>
        <mxCell id="tOOQpvvxY-JSeD_8fMoC-12" value="product name" style="ellipse;whiteSpace=wrap;html=1;align=center;" parent="1" vertex="1">
          <mxGeometry x="860" y="-450" width="100" height="40" as="geometry" />
        </mxCell>
        <mxCell id="tOOQpvvxY-JSeD_8fMoC-13" value="product code" style="ellipse;whiteSpace=wrap;html=1;align=center;" parent="1" vertex="1">
          <mxGeometry x="831" y="-492" width="100" height="40" as="geometry" />
        </mxCell>
        <mxCell id="tOOQpvvxY-JSeD_8fMoC-14" value="" style="endArrow=none;html=1;rounded=0;exitX=1;exitY=1;exitDx=0;exitDy=0;" parent="1" source="tOOQpvvxY-JSeD_8fMoC-20" edge="1">
          <mxGeometry width="50" height="50" relative="1" as="geometry">
            <mxPoint x="870" y="-300" as="sourcePoint" />
            <mxPoint x="920" y="-350" as="targetPoint" />
          </mxGeometry>
        </mxCell>
        <mxCell id="tOOQpvvxY-JSeD_8fMoC-15" value="" style="endArrow=none;html=1;rounded=0;entryX=0.936;entryY=1.02;entryDx=0;entryDy=0;entryPerimeter=0;" parent="1" source="tOOQpvvxY-JSeD_8fMoC-10" target="tOOQpvvxY-JSeD_8fMoC-9" edge="1">
          <mxGeometry width="50" height="50" relative="1" as="geometry">
            <mxPoint x="810" y="-310" as="sourcePoint" />
            <mxPoint x="860" y="-360" as="targetPoint" />
          </mxGeometry>
        </mxCell>
        <mxCell id="tOOQpvvxY-JSeD_8fMoC-16" value="" style="endArrow=none;html=1;rounded=0;exitX=1;exitY=0.5;exitDx=0;exitDy=0;" parent="1" source="tOOQpvvxY-JSeD_8fMoC-9" target="tOOQpvvxY-JSeD_8fMoC-11" edge="1">
          <mxGeometry width="50" height="50" relative="1" as="geometry">
            <mxPoint x="860" y="-345" as="sourcePoint" />
            <mxPoint x="910" y="-395" as="targetPoint" />
          </mxGeometry>
        </mxCell>
        <mxCell id="tOOQpvvxY-JSeD_8fMoC-17" value="" style="endArrow=none;html=1;rounded=0;exitX=1;exitY=0;exitDx=0;exitDy=0;entryX=0;entryY=1;entryDx=0;entryDy=0;" parent="1" source="tOOQpvvxY-JSeD_8fMoC-9" target="tOOQpvvxY-JSeD_8fMoC-12" edge="1">
          <mxGeometry width="50" height="50" relative="1" as="geometry">
            <mxPoint x="850" y="-380" as="sourcePoint" />
            <mxPoint x="880" y="-420" as="targetPoint" />
          </mxGeometry>
        </mxCell>
        <mxCell id="tOOQpvvxY-JSeD_8fMoC-18" value="" style="endArrow=none;html=1;rounded=0;exitX=0.25;exitY=0;exitDx=0;exitDy=0;entryX=0;entryY=1;entryDx=0;entryDy=0;" parent="1" source="tOOQpvvxY-JSeD_8fMoC-9" target="tOOQpvvxY-JSeD_8fMoC-13" edge="1">
          <mxGeometry width="50" height="50" relative="1" as="geometry">
            <mxPoint x="780" y="-405" as="sourcePoint" />
            <mxPoint x="830" y="-455" as="targetPoint" />
          </mxGeometry>
        </mxCell>
        <mxCell id="tOOQpvvxY-JSeD_8fMoC-19" value="" style="endArrow=none;html=1;rounded=0;" parent="1" source="tOOQpvvxY-JSeD_8fMoC-9" target="tOOQpvvxY-JSeD_8fMoC-20" edge="1">
          <mxGeometry width="50" height="50" relative="1" as="geometry">
            <mxPoint x="820" y="-370" as="sourcePoint" />
            <mxPoint x="920" y="-350" as="targetPoint" />
          </mxGeometry>
        </mxCell>
        <mxCell id="tOOQpvvxY-JSeD_8fMoC-20" value="product_stock" style="ellipse;whiteSpace=wrap;html=1;align=center;" parent="1" vertex="1">
          <mxGeometry x="870" y="-370" width="100" height="40" as="geometry" />
        </mxCell>
        <mxCell id="tOOQpvvxY-JSeD_8fMoC-22" value="product_price" style="ellipse;whiteSpace=wrap;html=1;align=center;" parent="1" vertex="1">
          <mxGeometry x="786" y="-285" width="100" height="40" as="geometry" />
        </mxCell>
        <mxCell id="tOOQpvvxY-JSeD_8fMoC-33" value="" style="edgeStyle=none;curved=1;rounded=0;orthogonalLoop=1;jettySize=auto;html=1;fontSize=12;startSize=8;endSize=8;" parent="1" source="tOOQpvvxY-JSeD_8fMoC-29" target="tOOQpvvxY-JSeD_8fMoC-8" edge="1">
          <mxGeometry relative="1" as="geometry" />
        </mxCell>
        <mxCell id="tOOQpvvxY-JSeD_8fMoC-29" value="&lt;div&gt;&lt;br&gt;&lt;/div&gt;&lt;div&gt;Update&lt;/div&gt;" style="rhombus;whiteSpace=wrap;html=1;rounded=1;arcSize=0;" parent="1" vertex="1">
          <mxGeometry x="720" y="-256" width="80" height="80" as="geometry" />
        </mxCell>
        <mxCell id="tOOQpvvxY-JSeD_8fMoC-32" value="" style="endArrow=none;html=1;rounded=0;fontSize=12;startSize=8;endSize=8;curved=1;entryX=0.5;entryY=0;entryDx=0;entryDy=0;" parent="1" source="tOOQpvvxY-JSeD_8fMoC-9" target="tOOQpvvxY-JSeD_8fMoC-22" edge="1">
          <mxGeometry relative="1" as="geometry">
            <mxPoint x="760" y="-370" as="sourcePoint" />
            <mxPoint x="760" y="-210" as="targetPoint" />
          </mxGeometry>
        </mxCell>
        <mxCell id="tOOQpvvxY-JSeD_8fMoC-50" style="edgeStyle=none;curved=1;rounded=0;orthogonalLoop=1;jettySize=auto;html=1;exitX=0.5;exitY=1;exitDx=0;exitDy=0;entryX=0.5;entryY=1;entryDx=0;entryDy=0;fontSize=12;startSize=8;endSize=8;" parent="1" source="tOOQpvvxY-JSeD_8fMoC-34" target="tOOQpvvxY-JSeD_8fMoC-39" edge="1">
          <mxGeometry relative="1" as="geometry" />
        </mxCell>
        <mxCell id="tOOQpvvxY-JSeD_8fMoC-72" value="" style="edgeStyle=none;curved=1;rounded=0;orthogonalLoop=1;jettySize=auto;html=1;fontSize=12;startSize=8;endSize=8;" parent="1" source="tOOQpvvxY-JSeD_8fMoC-34" target="tOOQpvvxY-JSeD_8fMoC-71" edge="1">
          <mxGeometry relative="1" as="geometry" />
        </mxCell>
        <mxCell id="tOOQpvvxY-JSeD_8fMoC-78" style="edgeStyle=none;curved=1;rounded=0;orthogonalLoop=1;jettySize=auto;html=1;exitX=1;exitY=0.5;exitDx=0;exitDy=0;entryX=0;entryY=0.5;entryDx=0;entryDy=0;fontSize=12;startSize=8;endSize=8;" parent="1" source="tOOQpvvxY-JSeD_8fMoC-34" target="tOOQpvvxY-JSeD_8fMoC-51" edge="1">
          <mxGeometry relative="1" as="geometry" />
        </mxCell>
        <mxCell id="tOOQpvvxY-JSeD_8fMoC-96" style="edgeStyle=none;curved=1;rounded=0;orthogonalLoop=1;jettySize=auto;html=1;exitX=0.5;exitY=0;exitDx=0;exitDy=0;entryX=0;entryY=1;entryDx=0;entryDy=0;fontSize=12;startSize=8;endSize=8;" parent="1" source="tOOQpvvxY-JSeD_8fMoC-34" target="tOOQpvvxY-JSeD_8fMoC-94" edge="1">
          <mxGeometry relative="1" as="geometry" />
        </mxCell>
        <mxCell id="tOOQpvvxY-JSeD_8fMoC-124" style="edgeStyle=none;curved=1;rounded=0;orthogonalLoop=1;jettySize=auto;html=1;fontSize=12;startSize=8;endSize=8;" parent="1" source="tOOQpvvxY-JSeD_8fMoC-34" target="tOOQpvvxY-JSeD_8fMoC-123" edge="1">
          <mxGeometry relative="1" as="geometry" />
        </mxCell>
        <mxCell id="tOOQpvvxY-JSeD_8fMoC-34" value="ADMIN" style="whiteSpace=wrap;html=1;align=center;" parent="1" vertex="1">
          <mxGeometry x="-52" y="-403" width="100" height="40" as="geometry" />
        </mxCell>
        <mxCell id="tOOQpvvxY-JSeD_8fMoC-35" value="#user_id" style="ellipse;whiteSpace=wrap;html=1;align=center;" parent="1" vertex="1">
          <mxGeometry x="-228" y="-532" width="100" height="40" as="geometry" />
        </mxCell>
        <mxCell id="tOOQpvvxY-JSeD_8fMoC-36" value="user_email" style="ellipse;whiteSpace=wrap;html=1;align=center;" parent="1" vertex="1">
          <mxGeometry x="-231" y="-354" width="100" height="40" as="geometry" />
        </mxCell>
        <mxCell id="tOOQpvvxY-JSeD_8fMoC-37" value="user_mobile" style="ellipse;whiteSpace=wrap;html=1;align=center;" parent="1" vertex="1">
          <mxGeometry x="-231" y="-410" width="100" height="40" as="geometry" />
        </mxCell>
        <mxCell id="tOOQpvvxY-JSeD_8fMoC-38" value="user_name" style="ellipse;whiteSpace=wrap;html=1;align=center;" parent="1" vertex="1">
          <mxGeometry x="-228" y="-466" width="100" height="40" as="geometry" />
        </mxCell>
        <mxCell id="tOOQpvvxY-JSeD_8fMoC-39" value="user_address" style="ellipse;whiteSpace=wrap;html=1;align=center;" parent="1" vertex="1">
          <mxGeometry x="-223" y="-296" width="100" height="40" as="geometry" />
        </mxCell>
        <mxCell id="tOOQpvvxY-JSeD_8fMoC-40" value="" style="endArrow=none;html=1;rounded=0;entryX=0;entryY=0.75;entryDx=0;entryDy=0;exitX=0.744;exitY=0.02;exitDx=0;exitDy=0;exitPerimeter=0;" parent="1" source="tOOQpvvxY-JSeD_8fMoC-36" target="tOOQpvvxY-JSeD_8fMoC-34" edge="1">
          <mxGeometry width="50" height="50" relative="1" as="geometry">
            <mxPoint x="70" y="-770" as="sourcePoint" />
            <mxPoint x="115" y="-820" as="targetPoint" />
          </mxGeometry>
        </mxCell>
        <mxCell id="tOOQpvvxY-JSeD_8fMoC-41" value="" style="endArrow=none;html=1;rounded=0;entryX=0;entryY=0.5;entryDx=0;entryDy=0;exitX=0.724;exitY=1;exitDx=0;exitDy=0;exitPerimeter=0;" parent="1" source="tOOQpvvxY-JSeD_8fMoC-37" target="tOOQpvvxY-JSeD_8fMoC-34" edge="1">
          <mxGeometry width="50" height="50" relative="1" as="geometry">
            <mxPoint x="75" y="-775" as="sourcePoint" />
            <mxPoint x="125" y="-825" as="targetPoint" />
          </mxGeometry>
        </mxCell>
        <mxCell id="tOOQpvvxY-JSeD_8fMoC-43" value="" style="endArrow=none;html=1;rounded=0;entryX=1;entryY=1;entryDx=0;entryDy=0;exitX=0;exitY=0;exitDx=0;exitDy=0;" parent="1" source="tOOQpvvxY-JSeD_8fMoC-34" target="tOOQpvvxY-JSeD_8fMoC-38" edge="1">
          <mxGeometry width="50" height="50" relative="1" as="geometry">
            <mxPoint x="105" y="-820" as="sourcePoint" />
            <mxPoint x="160" y="-870" as="targetPoint" />
          </mxGeometry>
        </mxCell>
        <mxCell id="tOOQpvvxY-JSeD_8fMoC-44" value="" style="endArrow=none;html=1;rounded=0;entryX=0.5;entryY=1;entryDx=0;entryDy=0;exitX=0.5;exitY=0;exitDx=0;exitDy=0;" parent="1" source="tOOQpvvxY-JSeD_8fMoC-34" target="tOOQpvvxY-JSeD_8fMoC-35" edge="1">
          <mxGeometry width="50" height="50" relative="1" as="geometry">
            <mxPoint x="200" y="-830" as="sourcePoint" />
            <mxPoint x="250" y="-870" as="targetPoint" />
          </mxGeometry>
        </mxCell>
        <mxCell id="tOOQpvvxY-JSeD_8fMoC-79" style="edgeStyle=none;curved=1;rounded=0;orthogonalLoop=1;jettySize=auto;html=1;exitX=1;exitY=0.5;exitDx=0;exitDy=0;entryX=0;entryY=0.75;entryDx=0;entryDy=0;fontSize=12;startSize=8;endSize=8;" parent="1" source="tOOQpvvxY-JSeD_8fMoC-51" target="tOOQpvvxY-JSeD_8fMoC-9" edge="1">
          <mxGeometry relative="1" as="geometry" />
        </mxCell>
        <mxCell id="tOOQpvvxY-JSeD_8fMoC-51" value="ADD" style="rhombus;whiteSpace=wrap;html=1;rounded=1;arcSize=0;" parent="1" vertex="1">
          <mxGeometry x="351" y="-399" width="80" height="80" as="geometry" />
        </mxCell>
        <mxCell id="tOOQpvvxY-JSeD_8fMoC-55" value="product code" style="ellipse;whiteSpace=wrap;html=1;align=center;" parent="1" vertex="1">
          <mxGeometry x="317" y="-185" width="100" height="40" as="geometry" />
        </mxCell>
        <mxCell id="tOOQpvvxY-JSeD_8fMoC-56" value="product price" style="ellipse;whiteSpace=wrap;html=1;align=center;" parent="1" vertex="1">
          <mxGeometry x="455" y="-232" width="100" height="40" as="geometry" />
        </mxCell>
        <mxCell id="tOOQpvvxY-JSeD_8fMoC-57" value="product name" style="ellipse;whiteSpace=wrap;html=1;align=center;" parent="1" vertex="1">
          <mxGeometry x="380" y="-150" width="100" height="40" as="geometry" />
        </mxCell>
        <mxCell id="tOOQpvvxY-JSeD_8fMoC-58" value="" style="endArrow=none;html=1;rounded=0;exitX=1;exitY=0.25;exitDx=0;exitDy=0;entryX=0;entryY=0.5;entryDx=0;entryDy=0;" parent="1" source="tOOQpvvxY-JSeD_8fMoC-62" target="tOOQpvvxY-JSeD_8fMoC-56" edge="1">
          <mxGeometry width="50" height="50" relative="1" as="geometry">
            <mxPoint x="440" y="-240" as="sourcePoint" />
            <mxPoint x="490" y="-290" as="targetPoint" />
            <Array as="points" />
          </mxGeometry>
        </mxCell>
        <mxCell id="tOOQpvvxY-JSeD_8fMoC-59" value="" style="endArrow=none;html=1;rounded=0;entryX=0.912;entryY=1.07;entryDx=0;entryDy=0;entryPerimeter=0;" parent="1" source="tOOQpvvxY-JSeD_8fMoC-57" target="tOOQpvvxY-JSeD_8fMoC-62" edge="1">
          <mxGeometry width="50" height="50" relative="1" as="geometry">
            <mxPoint x="375" y="-140" as="sourcePoint" />
            <mxPoint x="425" y="-190" as="targetPoint" />
          </mxGeometry>
        </mxCell>
        <mxCell id="tOOQpvvxY-JSeD_8fMoC-60" value="" style="endArrow=none;html=1;rounded=0;" parent="1" source="tOOQpvvxY-JSeD_8fMoC-62" edge="1">
          <mxGeometry width="50" height="50" relative="1" as="geometry">
            <mxPoint x="330" y="-170" as="sourcePoint" />
            <mxPoint x="380" y="-220" as="targetPoint" />
          </mxGeometry>
        </mxCell>
        <mxCell id="tOOQpvvxY-JSeD_8fMoC-61" value="" style="endArrow=none;html=1;rounded=0;exitX=0.5;exitY=0;exitDx=0;exitDy=0;" parent="1" source="tOOQpvvxY-JSeD_8fMoC-55" target="tOOQpvvxY-JSeD_8fMoC-62" edge="1">
          <mxGeometry width="50" height="50" relative="1" as="geometry">
            <mxPoint x="330" y="-170" as="sourcePoint" />
            <mxPoint x="380" y="-220" as="targetPoint" />
          </mxGeometry>
        </mxCell>
        <mxCell id="tOOQpvvxY-JSeD_8fMoC-77" style="edgeStyle=none;curved=1;rounded=0;orthogonalLoop=1;jettySize=auto;html=1;exitX=1;exitY=0.75;exitDx=0;exitDy=0;entryX=0;entryY=0;entryDx=0;entryDy=0;fontSize=12;startSize=8;endSize=8;" parent="1" source="tOOQpvvxY-JSeD_8fMoC-62" target="tOOQpvvxY-JSeD_8fMoC-74" edge="1">
          <mxGeometry relative="1" as="geometry" />
        </mxCell>
        <mxCell id="tOOQpvvxY-JSeD_8fMoC-126" style="edgeStyle=none;curved=1;rounded=0;orthogonalLoop=1;jettySize=auto;html=1;exitX=0;exitY=0.75;exitDx=0;exitDy=0;fontSize=12;startSize=8;endSize=8;entryX=0.5;entryY=0;entryDx=0;entryDy=0;" parent="1" source="tOOQpvvxY-JSeD_8fMoC-62" target="tOOQpvvxY-JSeD_8fMoC-127" edge="1">
          <mxGeometry relative="1" as="geometry">
            <mxPoint x="183.33333333333348" y="-110.66667683919263" as="targetPoint" />
            <Array as="points">
              <mxPoint x="187" y="-111" />
            </Array>
          </mxGeometry>
        </mxCell>
        <mxCell id="tOOQpvvxY-JSeD_8fMoC-62" value="Sales" style="rounded=1;arcSize=0;whiteSpace=wrap;html=1;align=center;" parent="1" vertex="1">
          <mxGeometry x="330" y="-240" width="100" height="40" as="geometry" />
        </mxCell>
        <mxCell id="tOOQpvvxY-JSeD_8fMoC-64" value="Quantity" style="ellipse;whiteSpace=wrap;html=1;align=center;" parent="1" vertex="1">
          <mxGeometry x="449" y="-185" width="100" height="40" as="geometry" />
        </mxCell>
        <mxCell id="tOOQpvvxY-JSeD_8fMoC-66" value="" style="endArrow=none;html=1;rounded=0;fontSize=12;startSize=8;endSize=8;curved=1;entryX=0;entryY=0.5;entryDx=0;entryDy=0;exitX=1;exitY=0.5;exitDx=0;exitDy=0;" parent="1" source="tOOQpvvxY-JSeD_8fMoC-62" target="tOOQpvvxY-JSeD_8fMoC-64" edge="1">
          <mxGeometry relative="1" as="geometry">
            <mxPoint x="298" y="-236.43" as="sourcePoint" />
            <mxPoint x="458" y="-236.43" as="targetPoint" />
          </mxGeometry>
        </mxCell>
        <mxCell id="tOOQpvvxY-JSeD_8fMoC-67" value="Date" style="ellipse;whiteSpace=wrap;html=1;align=center;" parent="1" vertex="1">
          <mxGeometry x="217" y="-203" width="100" height="40" as="geometry" />
        </mxCell>
        <mxCell id="tOOQpvvxY-JSeD_8fMoC-70" value="" style="endArrow=none;html=1;rounded=0;fontSize=12;startSize=8;endSize=8;curved=1;exitX=1;exitY=0.5;exitDx=0;exitDy=0;entryX=0;entryY=0.25;entryDx=0;entryDy=0;" parent="1" source="tOOQpvvxY-JSeD_8fMoC-67" target="tOOQpvvxY-JSeD_8fMoC-62" edge="1">
          <mxGeometry relative="1" as="geometry">
            <mxPoint x="311" y="-207" as="sourcePoint" />
            <mxPoint x="471" y="-207" as="targetPoint" />
          </mxGeometry>
        </mxCell>
        <mxCell id="tOOQpvvxY-JSeD_8fMoC-73" style="edgeStyle=none;curved=1;rounded=0;orthogonalLoop=1;jettySize=auto;html=1;fontSize=12;startSize=8;endSize=8;" parent="1" source="tOOQpvvxY-JSeD_8fMoC-71" edge="1">
          <mxGeometry relative="1" as="geometry">
            <mxPoint x="332.769287109375" y="-227.9999483548679" as="targetPoint" />
          </mxGeometry>
        </mxCell>
        <mxCell id="tOOQpvvxY-JSeD_8fMoC-71" value="sold" style="rhombus;whiteSpace=wrap;html=1;" parent="1" vertex="1">
          <mxGeometry x="78" y="-316" width="80" height="80" as="geometry" />
        </mxCell>
        <mxCell id="tOOQpvvxY-JSeD_8fMoC-76" style="edgeStyle=none;curved=1;rounded=0;orthogonalLoop=1;jettySize=auto;html=1;exitX=1;exitY=0.5;exitDx=0;exitDy=0;fontSize=12;startSize=8;endSize=8;" parent="1" source="tOOQpvvxY-JSeD_8fMoC-74" target="tOOQpvvxY-JSeD_8fMoC-8" edge="1">
          <mxGeometry relative="1" as="geometry" />
        </mxCell>
        <mxCell id="tOOQpvvxY-JSeD_8fMoC-74" value="update" style="shape=rhombus;perimeter=rhombusPerimeter;whiteSpace=wrap;html=1;align=center;" parent="1" vertex="1">
          <mxGeometry x="552" y="-130" width="120" height="60" as="geometry" />
        </mxCell>
        <mxCell id="tOOQpvvxY-JSeD_8fMoC-81" value="customer name" style="ellipse;whiteSpace=wrap;html=1;align=center;" parent="1" vertex="1">
          <mxGeometry x="471" y="-287" width="100" height="40" as="geometry" />
        </mxCell>
        <mxCell id="tOOQpvvxY-JSeD_8fMoC-82" value="" style="endArrow=none;html=1;rounded=0;fontSize=12;startSize=8;endSize=8;curved=1;exitX=1;exitY=0.25;exitDx=0;exitDy=0;entryX=0.025;entryY=0.688;entryDx=0;entryDy=0;entryPerimeter=0;" parent="1" source="tOOQpvvxY-JSeD_8fMoC-62" target="tOOQpvvxY-JSeD_8fMoC-81" edge="1">
          <mxGeometry relative="1" as="geometry">
            <mxPoint x="366" y="-273.5" as="sourcePoint" />
            <mxPoint x="526" y="-273.5" as="targetPoint" />
            <Array as="points">
              <mxPoint x="450" y="-278.5" />
            </Array>
          </mxGeometry>
        </mxCell>
        <mxCell id="tOOQpvvxY-JSeD_8fMoC-100" style="edgeStyle=none;curved=1;rounded=0;orthogonalLoop=1;jettySize=auto;html=1;exitX=1;exitY=0.25;exitDx=0;exitDy=0;fontSize=12;startSize=8;endSize=8;" parent="1" source="tOOQpvvxY-JSeD_8fMoC-83" target="tOOQpvvxY-JSeD_8fMoC-99" edge="1">
          <mxGeometry relative="1" as="geometry" />
        </mxCell>
        <mxCell id="tOOQpvvxY-JSeD_8fMoC-83" value="supplier" style="whiteSpace=wrap;html=1;align=center;" parent="1" vertex="1">
          <mxGeometry x="211" y="-568" width="100" height="40" as="geometry" />
        </mxCell>
        <mxCell id="tOOQpvvxY-JSeD_8fMoC-84" value="supplier name" style="ellipse;whiteSpace=wrap;html=1;align=center;" parent="1" vertex="1">
          <mxGeometry x="52" y="-647" width="100" height="40" as="geometry" />
        </mxCell>
        <mxCell id="tOOQpvvxY-JSeD_8fMoC-85" value="supplier mob" style="ellipse;whiteSpace=wrap;html=1;align=center;" parent="1" vertex="1">
          <mxGeometry x="137" y="-687" width="100" height="40" as="geometry" />
        </mxCell>
        <mxCell id="tOOQpvvxY-JSeD_8fMoC-86" value="supplier address" style="ellipse;whiteSpace=wrap;html=1;align=center;" parent="1" vertex="1">
          <mxGeometry x="247" y="-690" width="100" height="40" as="geometry" />
        </mxCell>
        <mxCell id="tOOQpvvxY-JSeD_8fMoC-87" value="supplier email" style="ellipse;whiteSpace=wrap;html=1;align=center;" parent="1" vertex="1">
          <mxGeometry x="331" y="-638" width="100" height="40" as="geometry" />
        </mxCell>
        <mxCell id="tOOQpvvxY-JSeD_8fMoC-90" value="" style="endArrow=none;html=1;rounded=0;fontSize=12;startSize=8;endSize=8;curved=1;exitX=1;exitY=0.5;exitDx=0;exitDy=0;entryX=0.086;entryY=0.029;entryDx=0;entryDy=0;entryPerimeter=0;" parent="1" source="tOOQpvvxY-JSeD_8fMoC-84" target="tOOQpvvxY-JSeD_8fMoC-83" edge="1">
          <mxGeometry relative="1" as="geometry">
            <mxPoint x="125" y="-607" as="sourcePoint" />
            <mxPoint x="285" y="-607" as="targetPoint" />
          </mxGeometry>
        </mxCell>
        <mxCell id="tOOQpvvxY-JSeD_8fMoC-91" value="" style="endArrow=none;html=1;rounded=0;fontSize=12;startSize=8;endSize=8;curved=1;exitX=0;exitY=1;exitDx=0;exitDy=0;entryX=0.25;entryY=0;entryDx=0;entryDy=0;" parent="1" source="tOOQpvvxY-JSeD_8fMoC-85" target="tOOQpvvxY-JSeD_8fMoC-83" edge="1">
          <mxGeometry relative="1" as="geometry">
            <mxPoint x="187" y="-647" as="sourcePoint" />
            <mxPoint x="255" y="-587" as="targetPoint" />
          </mxGeometry>
        </mxCell>
        <mxCell id="tOOQpvvxY-JSeD_8fMoC-92" value="" style="endArrow=none;html=1;rounded=0;fontSize=12;startSize=8;endSize=8;curved=1;entryX=0.5;entryY=0;entryDx=0;entryDy=0;" parent="1" source="tOOQpvvxY-JSeD_8fMoC-86" target="tOOQpvvxY-JSeD_8fMoC-83" edge="1">
          <mxGeometry relative="1" as="geometry">
            <mxPoint x="162" y="-643" as="sourcePoint" />
            <mxPoint x="246" y="-558" as="targetPoint" />
            <Array as="points">
              <mxPoint x="277" y="-629" />
            </Array>
          </mxGeometry>
        </mxCell>
        <mxCell id="tOOQpvvxY-JSeD_8fMoC-93" value="" style="endArrow=none;html=1;rounded=0;fontSize=12;startSize=8;endSize=8;curved=1;entryX=0.75;entryY=0;entryDx=0;entryDy=0;exitX=0;exitY=1;exitDx=0;exitDy=0;" parent="1" source="tOOQpvvxY-JSeD_8fMoC-87" target="tOOQpvvxY-JSeD_8fMoC-83" edge="1">
          <mxGeometry relative="1" as="geometry">
            <mxPoint x="297" y="-640" as="sourcePoint" />
            <mxPoint x="256" y="-548" as="targetPoint" />
            <Array as="points">
              <mxPoint x="287" y="-619" />
            </Array>
          </mxGeometry>
        </mxCell>
        <mxCell id="tOOQpvvxY-JSeD_8fMoC-97" style="edgeStyle=none;curved=1;rounded=0;orthogonalLoop=1;jettySize=auto;html=1;exitX=1;exitY=0;exitDx=0;exitDy=0;fontSize=12;startSize=8;endSize=8;" parent="1" source="tOOQpvvxY-JSeD_8fMoC-94" target="tOOQpvvxY-JSeD_8fMoC-83" edge="1">
          <mxGeometry relative="1" as="geometry">
            <Array as="points">
              <mxPoint x="196" y="-548" />
            </Array>
          </mxGeometry>
        </mxCell>
        <mxCell id="tOOQpvvxY-JSeD_8fMoC-94" value="ADD" style="rhombus;whiteSpace=wrap;html=1;" parent="1" vertex="1">
          <mxGeometry x="57" y="-523" width="80" height="80" as="geometry" />
        </mxCell>
        <mxCell id="tOOQpvvxY-JSeD_8fMoC-101" style="edgeStyle=none;curved=1;rounded=0;orthogonalLoop=1;jettySize=auto;html=1;exitX=1;exitY=1;exitDx=0;exitDy=0;fontSize=12;startSize=8;endSize=8;" parent="1" source="tOOQpvvxY-JSeD_8fMoC-99" target="tOOQpvvxY-JSeD_8fMoC-9" edge="1">
          <mxGeometry relative="1" as="geometry" />
        </mxCell>
        <mxCell id="tOOQpvvxY-JSeD_8fMoC-99" value="Supplying&amp;nbsp;" style="shape=rhombus;perimeter=rhombusPerimeter;whiteSpace=wrap;html=1;align=center;" parent="1" vertex="1">
          <mxGeometry x="443" y="-536" width="120" height="60" as="geometry" />
        </mxCell>
        <mxCell id="tOOQpvvxY-JSeD_8fMoC-112" value="customer" style="whiteSpace=wrap;html=1;align=center;" parent="1" vertex="1">
          <mxGeometry x="-12" y="27" width="100" height="40" as="geometry" />
        </mxCell>
        <mxCell id="tOOQpvvxY-JSeD_8fMoC-113" value="cust name" style="ellipse;whiteSpace=wrap;html=1;align=center;" parent="1" vertex="1">
          <mxGeometry x="-187" y="11" width="100" height="40" as="geometry" />
        </mxCell>
        <mxCell id="tOOQpvvxY-JSeD_8fMoC-114" value="cust&lt;span style=&quot;background-color: initial;&quot;&gt;&amp;nbsp;mob&lt;/span&gt;" style="ellipse;whiteSpace=wrap;html=1;align=center;" parent="1" vertex="1">
          <mxGeometry x="-152" y="77" width="100" height="40" as="geometry" />
        </mxCell>
        <mxCell id="tOOQpvvxY-JSeD_8fMoC-115" value="cust address" style="ellipse;whiteSpace=wrap;html=1;align=center;" parent="1" vertex="1">
          <mxGeometry x="120" y="64" width="100" height="40" as="geometry" />
        </mxCell>
        <mxCell id="tOOQpvvxY-JSeD_8fMoC-116" value="cust email" style="ellipse;whiteSpace=wrap;html=1;align=center;" parent="1" vertex="1">
          <mxGeometry x="25" y="104" width="100" height="40" as="geometry" />
        </mxCell>
        <mxCell id="tOOQpvvxY-JSeD_8fMoC-117" value="" style="endArrow=none;html=1;rounded=0;fontSize=12;startSize=8;endSize=8;curved=1;exitX=1;exitY=0.5;exitDx=0;exitDy=0;entryX=0.086;entryY=0.029;entryDx=0;entryDy=0;entryPerimeter=0;" parent="1" source="tOOQpvvxY-JSeD_8fMoC-113" target="tOOQpvvxY-JSeD_8fMoC-112" edge="1">
          <mxGeometry relative="1" as="geometry">
            <mxPoint x="-98" y="-12" as="sourcePoint" />
            <mxPoint x="62" y="-12" as="targetPoint" />
          </mxGeometry>
        </mxCell>
        <mxCell id="tOOQpvvxY-JSeD_8fMoC-118" value="" style="endArrow=none;html=1;rounded=0;fontSize=12;startSize=8;endSize=8;curved=1;exitX=0;exitY=1;exitDx=0;exitDy=0;entryX=0.25;entryY=0;entryDx=0;entryDy=0;" parent="1" source="tOOQpvvxY-JSeD_8fMoC-114" target="tOOQpvvxY-JSeD_8fMoC-112" edge="1">
          <mxGeometry relative="1" as="geometry">
            <mxPoint x="-36" y="-52" as="sourcePoint" />
            <mxPoint x="32" y="8" as="targetPoint" />
          </mxGeometry>
        </mxCell>
        <mxCell id="tOOQpvvxY-JSeD_8fMoC-119" value="" style="endArrow=none;html=1;rounded=0;fontSize=12;startSize=8;endSize=8;curved=1;entryX=0.5;entryY=0;entryDx=0;entryDy=0;" parent="1" source="tOOQpvvxY-JSeD_8fMoC-115" target="tOOQpvvxY-JSeD_8fMoC-112" edge="1">
          <mxGeometry relative="1" as="geometry">
            <mxPoint x="-61" y="-48" as="sourcePoint" />
            <mxPoint x="23" y="37" as="targetPoint" />
            <Array as="points">
              <mxPoint x="54" y="-34" />
            </Array>
          </mxGeometry>
        </mxCell>
        <mxCell id="tOOQpvvxY-JSeD_8fMoC-120" value="" style="endArrow=none;html=1;rounded=0;fontSize=12;startSize=8;endSize=8;curved=1;entryX=0.75;entryY=0;entryDx=0;entryDy=0;exitX=0;exitY=1;exitDx=0;exitDy=0;" parent="1" source="tOOQpvvxY-JSeD_8fMoC-116" target="tOOQpvvxY-JSeD_8fMoC-112" edge="1">
          <mxGeometry relative="1" as="geometry">
            <mxPoint x="74" y="-45" as="sourcePoint" />
            <mxPoint x="33" y="47" as="targetPoint" />
            <Array as="points">
              <mxPoint x="64" y="-24" />
            </Array>
          </mxGeometry>
        </mxCell>
        <mxCell id="tOOQpvvxY-JSeD_8fMoC-125" style="edgeStyle=none;curved=1;rounded=0;orthogonalLoop=1;jettySize=auto;html=1;exitX=0.5;exitY=1;exitDx=0;exitDy=0;fontSize=12;startSize=8;endSize=8;entryX=0.5;entryY=0;entryDx=0;entryDy=0;" parent="1" source="tOOQpvvxY-JSeD_8fMoC-123" target="tOOQpvvxY-JSeD_8fMoC-112" edge="1">
          <mxGeometry relative="1" as="geometry">
            <mxPoint x="-36" y="132" as="targetPoint" />
          </mxGeometry>
        </mxCell>
        <mxCell id="tOOQpvvxY-JSeD_8fMoC-123" value="ADD" style="shape=rhombus;perimeter=rhombusPerimeter;whiteSpace=wrap;html=1;align=center;" parent="1" vertex="1">
          <mxGeometry x="-72" y="-198" width="120" height="60" as="geometry" />
        </mxCell>
        <mxCell id="tOOQpvvxY-JSeD_8fMoC-128" style="edgeStyle=none;curved=1;rounded=0;orthogonalLoop=1;jettySize=auto;html=1;entryX=0.75;entryY=0;entryDx=0;entryDy=0;fontSize=12;startSize=8;endSize=8;" parent="1" source="tOOQpvvxY-JSeD_8fMoC-127" target="tOOQpvvxY-JSeD_8fMoC-112" edge="1">
          <mxGeometry relative="1" as="geometry" />
        </mxCell>
        <mxCell id="tOOQpvvxY-JSeD_8fMoC-127" value="S&lt;span style=&quot;background-color: initial;&quot;&gt;ales&lt;/span&gt;" style="shape=rhombus;perimeter=rhombusPerimeter;whiteSpace=wrap;html=1;align=center;" parent="1" vertex="1">
          <mxGeometry x="120" y="-110" width="120" height="60" as="geometry" />
        </mxCell>
      </root>
    </mxGraphModel>
  </diagram>
</mxfile>
